<mxfile host="app.diagrams.net">
  <diagram name="Production Process Flow">
    <mxGraphModel dx="1000" dy="1000" grid="1" gridSize="10" guides="1" tooltips="1" connect="1" arrows="1" fold="1" page="1" pageScale="1" pageWidth="827" pageHeight="1169" math="0">
      <root>
        <mxCell id="0" />
        <mxCell id="1" parent="0" />
        <mxCell id="2" value="PN วางแผนการผลิต" style="rounded=1;fillColor=#ADD8E6;" vertex="1" parent="1">
          <mxGeometry x="200" y="50" width="160" height="50" as="geometry" />
        </mxCell>
        <mxCell id="3" value="PD เบิก RM/WIP/FG&#xa;พร้อมคีย์ข้อมูลการเบิกเข้าระบบ" style="rounded=1;fillColor=#ADD8E6;" vertex="1" parent="1">
          <mxGeometry x="200" y="130" width="200" height="60" as="geometry" />
        </mxCell>
        <mxCell id="4" value="ผลิตใช้ของหมดไหม?" style="rhombus;fillColor=#FFA500;" vertex="1" parent="1">
          <mxGeometry x="250" y="220" width="120" height="60" as="geometry" />
        </mxCell>
        <mxCell id="5" value="ส่งของคืนคลัง&#xa;พร้อมคีย์ข้อมูลเข้าระบบ" style="rounded=1;fillColor=#90EE90;" vertex="1" parent="1">
          <mxGeometry x="50" y="330" width="180" height="60" as="geometry" />
        </mxCell>
        <mxCell id="6" value="ส่งของที่ผลิตได้&#xa;เข้าคลังพร้อมคีย์ข้อมูลเข้าระบบ" style="rounded=1;fillColor=#90EE90;" vertex="1" parent="1">
          <mxGeometry x="300" y="330" width="220" height="60" as="geometry" />
        </mxCell>
        <mxCell id="7" value="จบ Flow" style="rounded=1;fillColor=#FFFFFF;" vertex="1" parent="1">
          <mxGeometry x="300" y="430" width="100" height="50" as="geometry" />
        </mxCell>
        <mxCell id="8" edge="1" parent="1" source="2" target="3">
          <mxGeometry relative="1" as="geometry" />
        </mxCell>
        <mxCell id="9" edge="1" parent="1" source="3" target="4">
          <mxGeometry relative="1" as="geometry" />
        </mxCell>
        <mxCell id="10" value="ไม่หมด" edge="1" parent="1" source="4" target="5">
          <mxGeometry relative="1" as="geometry" />
        </mxCell>
        <mxCell id="11" value="หมด" edge="1" parent="1" source="4" target="6">
          <mxGeometry relative="1" as="geometry" />
        </mxCell>
        <mxCell id="12" edge="1" parent="1" source="5" target="6">
          <mxGeometry relative="1" as="geometry" />
        </mxCell>
        <mxCell id="13" edge="1" parent="1" source="6" target="7">
          <mxGeometry relative="1" as="geometry" />
        </mxCell>
      </root>
    </mxGraphModel>
  </diagram>
</mxfile>
